<svg width="20" height="20" viewBox="0 0 20 20" fill="none" xmlns="http://www.w3.org/2000/svg">
<g opacity="0.3">
<path d="M9.99936 1.66699C14.6019 1.66699 18.3327 5.39783 18.3327 10.0003C18.3327 14.6028 14.6019 18.3337 9.99936 18.3337C8.66935 18.3355 7.35837 18.0177 6.17686 17.407L2.98852 18.2962C2.81064 18.3458 2.62276 18.3473 2.44413 18.3004C2.26549 18.2535 2.10254 18.16 1.97195 18.0294C1.84136 17.8988 1.74784 17.7359 1.70096 17.5572C1.65409 17.3786 1.65555 17.1907 1.70519 17.0128L2.59519 13.827C1.98298 12.6444 1.66429 11.3319 1.66602 10.0003C1.66602 5.39783 5.39686 1.66699 9.99936 1.66699ZM9.99936 2.91699C8.12074 2.91699 6.31907 3.66327 4.99068 4.99165C3.6623 6.32004 2.91602 8.12171 2.91602 10.0003C2.91602 11.2253 3.22686 12.4028 3.81019 13.4478L3.93519 13.6728L3.00852 16.9928L6.33102 16.0662L6.55602 16.1912C7.50134 16.7167 8.55447 17.0189 9.63464 17.0743C10.7148 17.1298 11.7934 16.9372 12.7876 16.5112C13.7817 16.0853 14.6652 15.4373 15.3701 14.617C16.0751 13.7967 16.5828 12.8258 16.8544 11.7789C17.126 10.7319 17.1542 9.63669 16.9369 8.57715C16.7196 7.5176 16.2625 6.5219 15.6007 5.66638C14.9389 4.81086 14.09 4.11826 13.1191 3.64168C12.1481 3.1651 11.081 2.9172 9.99936 2.91699ZM9.99936 12.917C10.2204 12.917 10.4323 13.0048 10.5886 13.1611C10.7449 13.3174 10.8327 13.5293 10.8327 13.7503C10.8327 13.9713 10.7449 14.1833 10.5886 14.3396C10.4323 14.4959 10.2204 14.5837 9.99936 14.5837C9.77834 14.5837 9.56638 14.4959 9.4101 14.3396C9.25382 14.1833 9.16602 13.9713 9.16602 13.7503C9.16602 13.5293 9.25382 13.3174 9.4101 13.1611C9.56638 13.0048 9.77834 12.917 9.99936 12.917ZM9.99936 5.62533C10.6071 5.62533 11.19 5.86677 11.6198 6.29654C12.0496 6.72631 12.291 7.3092 12.291 7.91699C12.291 8.75866 12.0435 9.22866 11.4152 9.88283L11.2744 10.0253C10.756 10.5437 10.6244 10.7637 10.6244 11.2503C10.6244 11.4161 10.5585 11.5751 10.4413 11.6923C10.3241 11.8095 10.1651 11.8753 9.99936 11.8753C9.8336 11.8753 9.67462 11.8095 9.55741 11.6923C9.4402 11.5751 9.37436 11.4161 9.37436 11.2503C9.37436 10.4087 9.62186 9.93866 10.2502 9.28449L10.391 9.14199C10.9094 8.62366 11.041 8.40366 11.041 7.91699C11.0402 7.65056 10.9372 7.39458 10.7534 7.2017C10.5696 7.00883 10.3189 6.89372 10.0528 6.88006C9.78669 6.8664 9.52548 6.95522 9.32287 7.12825C9.12027 7.30129 8.99167 7.54538 8.96352 7.81033L8.95769 7.91699C8.95769 8.08275 8.89184 8.24172 8.77463 8.35893C8.65742 8.47614 8.49845 8.54199 8.33269 8.54199C8.16693 8.54199 8.00796 8.47614 7.89075 8.35893C7.77354 8.24172 7.70769 8.08275 7.70769 7.91699C7.70769 7.3092 7.94913 6.72631 8.3789 6.29654C8.80867 5.86677 9.39157 5.62533 9.99936 5.62533Z" fill="#314862" fill-opacity="0.8"/>
</g>
</svg>
