<svg width="17" height="18" viewBox="0 0 17 18" fill="none" xmlns="http://www.w3.org/2000/svg">
<g clip-path="url(#clip0_1_7186)">
<path d="M1.41602 5.1097C1.41602 4.35825 1.71453 3.63758 2.24588 3.10623C2.77723 2.57488 3.4979 2.27637 4.24935 2.27637H12.7493C13.5008 2.27637 14.2215 2.57488 14.7528 3.10623C15.2842 3.63758 15.5827 4.35825 15.5827 5.1097V13.6097C15.5827 14.3611 15.2842 15.0818 14.7528 15.6132C14.2215 16.1445 13.5008 16.443 12.7493 16.443H4.24935C3.4979 16.443 2.77723 16.1445 2.24588 15.6132C1.71453 15.0818 1.41602 14.3611 1.41602 13.6097V5.1097Z" stroke="#314862" stroke-width="1.41667" stroke-linecap="round" stroke-linejoin="round"/>
<path d="M6.02083 8.65104C6.99884 8.65104 7.79167 7.85821 7.79167 6.88021C7.79167 5.9022 6.99884 5.10938 6.02083 5.10938C5.04283 5.10938 4.25 5.9022 4.25 6.88021C4.25 7.85821 5.04283 8.65104 6.02083 8.65104Z" stroke="#314862" stroke-width="1.41667" stroke-linecap="round" stroke-linejoin="round"/>
<path d="M10.2892 9.79954L4.25 16.443H12.8442C13.5707 16.443 14.2674 16.1544 14.7811 15.6407C15.2947 15.127 15.5833 14.4303 15.5833 13.7039V13.6097C15.5833 13.2796 15.4594 13.1528 15.2362 12.9084L12.3817 9.79529C12.2486 9.65016 12.0868 9.53436 11.9065 9.45527C11.7262 9.37618 11.5314 9.33554 11.3345 9.33594C11.1376 9.33634 10.943 9.37777 10.763 9.45759C10.5831 9.53742 10.4217 9.65388 10.2892 9.79954V9.79954Z" stroke="#314862" stroke-width="1.41667" stroke-linecap="round" stroke-linejoin="round"/>
</g>
<defs>
<clipPath id="clip0_1_7186">
<rect width="17" height="17" fill="white" transform="translate(0 0.859375)"/>
</clipPath>
</defs>
</svg>
