<svg width="42" height="42" viewBox="0 0 42 42" fill="none" xmlns="http://www.w3.org/2000/svg">
<path d="M12.6667 31.4167V27.2501H29.3333V31.4167H12.6667ZM29.3333 16.8334L21 25.1667L12.6667 16.8334H17.875V8.50008H24.125V16.8334H29.3333ZM21 0.166748C32.4583 0.166748 41.8333 9.54175 41.8333 21.0001C41.8333 32.4584 32.4583 41.8334 21 41.8334C9.54166 41.8334 0.166656 32.4584 0.166656 21.0001C0.166656 9.54175 9.54166 0.166748 21 0.166748ZM21 4.33342C11.7917 4.33342 4.33332 11.7917 4.33332 21.0001C4.33332 30.2084 11.7917 37.6668 21 37.6668C30.2083 37.6668 37.6667 30.2084 37.6667 21.0001C37.6667 11.7917 30.2083 4.33342 21 4.33342Z" fill="white"/>
</svg>
