<svg width="25" height="24" viewBox="0 0 25 24" fill="none" xmlns="http://www.w3.org/2000/svg">
<path d="M18.8353 19.7964C19.0633 19.7965 19.2828 19.8831 19.4494 20.0388C19.6161 20.1944 19.7174 20.4076 19.7329 20.6351C19.7485 20.8626 19.6771 21.0875 19.5332 21.2644C19.3893 21.4412 19.1836 21.5569 18.9577 21.588L18.8353 21.5964H6.2425C6.01447 21.5963 5.79497 21.5097 5.62835 21.354C5.46173 21.1984 5.36041 20.9852 5.34487 20.7577C5.32933 20.5302 5.40072 20.3053 5.54462 20.1284C5.68852 19.9516 5.8942 19.8359 6.1201 19.8048L6.2425 19.7964H18.8353ZM12.5473 2.4C12.7646 2.4003 12.9744 2.4792 13.1381 2.62212C13.3017 2.76504 13.4081 2.96234 13.4377 3.1776L13.4461 3.3V15.5316L17.0053 11.9676C17.1575 11.815 17.3595 11.7221 17.5744 11.7058C17.7894 11.6895 18.003 11.7509 18.1765 11.8788L18.2785 11.9652C18.4312 12.1177 18.5241 12.3199 18.5402 12.5351C18.5563 12.7503 18.4945 12.9641 18.3661 13.1376L18.2797 13.2384L13.1881 18.3384L13.1041 18.414L12.9937 18.4848L12.9505 18.51L12.8413 18.5556L12.6973 18.5916L12.6133 18.6012L12.5413 18.6036C12.4804 18.6035 12.4197 18.5971 12.3601 18.5844L12.2641 18.5568C12.15 18.5201 12.0447 18.4605 11.9545 18.3816L6.8065 13.2396C6.64505 13.0792 6.55036 12.8636 6.54148 12.6362C6.53261 12.4088 6.61021 12.1865 6.75866 12.014C6.90711 11.8415 7.11539 11.7317 7.34158 11.7066C7.56776 11.6815 7.79506 11.743 7.9777 11.8788L8.0785 11.9664L11.6461 15.5268V3.2988C11.6461 3.06011 11.7409 2.83119 11.9097 2.66241C12.0785 2.49362 12.3074 2.3988 12.5461 2.3988L12.5473 2.4Z" fill="#FE7474"/>
</svg>
