<svg width="24" height="24" viewBox="0 0 24 24" fill="none" xmlns="http://www.w3.org/2000/svg">
<path d="M20.6626 6.84967L17.3762 3.35674C17.159 3.12826 16.8651 3 16.5588 3C16.2524 3 15.9585 3.12826 15.7413 3.35674L4.09038 15.659L3.02662 20.5135C2.98992 20.691 2.99118 20.8749 3.0303 21.0518C3.06942 21.2286 3.14542 21.3941 3.25273 21.5359C3.36005 21.6777 3.49598 21.7925 3.65059 21.8716C3.80519 21.9508 3.97458 21.9925 4.14637 21.9936C4.22641 22.0021 4.30707 22.0021 4.38711 21.9936L9.02846 20.8687L20.6626 8.57838C20.8787 8.34873 21 8.03797 21 7.71402C21 7.39008 20.8787 7.07931 20.6626 6.84967ZM8.46859 19.8031L4.11837 20.7681L5.10935 16.2569L13.8266 7.07464L17.1858 10.6268L8.46859 19.8031ZM17.936 9.76834L14.5768 6.21621L16.5252 4.16781L19.8284 7.71994L17.936 9.76834Z" fill="black" stroke="black"/>
</svg>
