<svg width="20" height="20" viewBox="0 0 20 20" fill="none" xmlns="http://www.w3.org/2000/svg">
<path d="M10.2333 9.06119C9.60846 9.05461 8.99953 8.86331 8.48318 8.51138C7.96683 8.15945 7.56614 7.66261 7.33157 7.08343C7.09699 6.50425 7.03902 5.86862 7.16494 5.25655C7.29087 4.64449 7.59506 4.08337 8.03923 3.64383C8.48339 3.20429 9.04767 2.90599 9.66101 2.78648C10.2744 2.66697 10.9094 2.7316 11.486 2.97223C12.0627 3.21285 12.5554 3.61872 12.9019 4.13873C13.2484 4.65874 13.4333 5.26964 13.4333 5.89452C13.4274 6.73834 13.0873 7.54543 12.4875 8.13898C11.8877 8.73253 11.0771 9.06415 10.2333 9.06119ZM10.2333 3.83896C9.82824 3.84553 9.43415 3.97165 9.10053 4.20148C8.76691 4.4313 8.50864 4.75458 8.35816 5.13072C8.20767 5.50685 8.17169 5.91906 8.25473 6.31558C8.33777 6.7121 8.53613 7.07524 8.82488 7.35939C9.11364 7.64354 9.47992 7.83603 9.87773 7.91268C10.2755 7.98933 10.6871 7.94672 11.0608 7.79021C11.4344 7.6337 11.7535 7.37026 11.978 7.03299C12.2024 6.69571 12.3221 6.29964 12.3222 5.89452C12.3163 5.34539 12.0933 4.82091 11.7019 4.43573C11.3105 4.05055 10.7825 3.836 10.2333 3.83896Z" fill="black" fill-opacity="0.8"/>
<path d="M10.2333 9.06119C9.60846 9.05461 8.99953 8.86331 8.48318 8.51138C7.96683 8.15945 7.56614 7.66261 7.33157 7.08343C7.09699 6.50425 7.03902 5.86862 7.16494 5.25655C7.29087 4.64449 7.59506 4.08337 8.03923 3.64383C8.48339 3.20429 9.04767 2.90599 9.66101 2.78648C10.2744 2.66697 10.9094 2.7316 11.486 2.97223C12.0627 3.21285 12.5554 3.61872 12.9019 4.13873C13.2484 4.65874 13.4333 5.26964 13.4333 5.89452C13.4274 6.73834 13.0873 7.54543 12.4875 8.13898C11.8877 8.73253 11.0771 9.06415 10.2333 9.06119ZM10.2333 3.83896C9.82824 3.84553 9.43415 3.97165 9.10053 4.20148C8.76691 4.4313 8.50864 4.75458 8.35816 5.13072C8.20767 5.50685 8.17169 5.91906 8.25473 6.31558C8.33777 6.7121 8.53613 7.07524 8.82488 7.35939C9.11364 7.64354 9.47992 7.83603 9.87773 7.91268C10.2755 7.98933 10.6871 7.94672 11.0608 7.79021C11.4344 7.6337 11.7535 7.37026 11.978 7.03299C12.2024 6.69571 12.3221 6.29964 12.3222 5.89452C12.3163 5.34539 12.0933 4.82091 11.7019 4.43573C11.3105 4.05055 10.7825 3.836 10.2333 3.83896Z" fill="black" fill-opacity="0.8"/>
<path d="M12.1722 9.80567C9.70804 9.37689 7.17127 9.76716 4.94996 10.9168C4.79228 11.0043 4.66171 11.1336 4.57255 11.2903C4.48338 11.4471 4.43905 11.6254 4.4444 11.8057V13.7834C4.4444 13.9308 4.50293 14.0721 4.60712 14.1763C4.71131 14.2805 4.85262 14.339 4.99996 14.339C5.1473 14.339 5.28861 14.2805 5.3928 14.1763C5.49698 14.0721 5.55551 13.9308 5.55551 13.7834V11.8779C7.61533 10.8444 9.95773 10.5164 12.2222 10.9446L12.1722 9.80567Z" fill="black" fill-opacity="0.8"/>
<path d="M18.3332 12.222H14.611V11.3998C14.611 11.2525 14.5525 11.1111 14.4483 11.007C14.3441 10.9028 14.2028 10.8442 14.0555 10.8442C13.9081 10.8442 13.7668 10.9028 13.6626 11.007C13.5584 11.1111 13.4999 11.2525 13.4999 11.3998V12.222H9.44435C9.29701 12.222 9.1557 12.2805 9.05151 12.3847C8.94733 12.4889 8.88879 12.6302 8.88879 12.7776V18.3331C8.88879 18.4805 8.94733 18.6218 9.05151 18.726C9.1557 18.8302 9.29701 18.8887 9.44435 18.8887H18.3332C18.4806 18.8887 18.6219 18.8302 18.7261 18.726C18.8303 18.6218 18.8888 18.4805 18.8888 18.3331V12.7776C18.8888 12.6302 18.8303 12.4889 18.7261 12.3847C18.6219 12.2805 18.4806 12.222 18.3332 12.222ZM17.7777 17.7776H9.9999V13.3331H13.4999V13.5609C13.4999 13.7082 13.5584 13.8496 13.6626 13.9537C13.7668 14.0579 13.9081 14.1165 14.0555 14.1165C14.2028 14.1165 14.3441 14.0579 14.4483 13.9537C14.5525 13.8496 14.611 13.7082 14.611 13.5609V13.3331H17.7777V17.7776Z" fill="black" fill-opacity="0.8"/>
<path d="M12.1166 15.2334H15.4277V16.0112H12.1166V15.2334Z" fill="black" fill-opacity="0.8"/>
<path d="M6.0222 6.7998C4.48411 6.82554 2.97269 7.20577 1.60553 7.91092C1.45684 7.98945 1.33229 8.10693 1.2452 8.25077C1.15811 8.39462 1.11175 8.55943 1.11108 8.72758V10.4498C1.11108 10.5971 1.16962 10.7385 1.2738 10.8426C1.37799 10.9468 1.5193 11.0054 1.66664 11.0054C1.81398 11.0054 1.95529 10.9468 2.05948 10.8426C2.16366 10.7385 2.2222 10.5971 2.2222 10.4498V8.83869C3.52847 8.18848 4.97473 7.86985 6.43331 7.91092C6.24247 7.56273 6.10395 7.18835 6.0222 6.7998Z" fill="black" fill-opacity="0.8"/>
<path d="M18.3944 7.90554C17.1682 7.26233 15.8206 6.88379 14.4389 6.79443C14.3575 7.18229 14.2209 7.55647 14.0333 7.90554C15.335 7.9367 16.6137 8.25543 17.7778 8.83888V10.45C17.7778 10.5973 17.8363 10.7386 17.9405 10.8428C18.0447 10.947 18.186 11.0055 18.3333 11.0055C18.4807 11.0055 18.622 10.947 18.7262 10.8428C18.8303 10.7386 18.8889 10.5973 18.8889 10.45V8.72777C18.8892 8.55867 18.8433 8.39269 18.7562 8.24778C18.669 8.10287 18.544 7.98452 18.3944 7.90554Z" fill="black" fill-opacity="0.8"/>
<path d="M5.92225 5.89445V5.52223C5.48704 5.46399 5.09105 5.24014 4.81673 4.89728C4.54241 4.55443 4.41089 4.11898 4.44955 3.68159C4.4882 3.24421 4.69406 2.83858 5.02426 2.54915C5.35446 2.25972 5.78357 2.10879 6.22225 2.12779C6.67854 2.12696 7.1171 2.30438 7.44447 2.62223C7.7333 2.384 8.05053 2.18246 8.38892 2.02223C8.01092 1.5876 7.5101 1.2777 6.95246 1.13338C6.39482 0.989065 5.80654 1.01711 5.26516 1.21381C4.72378 1.41051 4.2547 1.76664 3.91977 2.23526C3.58483 2.70388 3.39975 3.26299 3.38892 3.8389C3.40057 4.54376 3.67458 5.21896 4.15742 5.73262C4.64025 6.24627 5.29723 6.56148 6.00003 6.61667C5.9529 6.37869 5.92687 6.13701 5.92225 5.89445Z" fill="black" fill-opacity="0.8"/>
<path d="M13.7611 1.01662C13.3793 1.01671 13.0013 1.0929 12.6494 1.24076C12.2974 1.38861 11.9784 1.60516 11.7111 1.87773C12.0866 2.01383 12.4418 2.20075 12.7666 2.43329C13.026 2.25325 13.3293 2.14697 13.6443 2.12579C13.9594 2.10461 14.2742 2.16932 14.5553 2.31302C14.8365 2.45672 15.0733 2.67403 15.2407 2.94176C15.408 3.20949 15.4995 3.51762 15.5055 3.83329C15.502 4.15753 15.4068 4.47415 15.2308 4.7465C15.0548 5.01885 14.8052 5.23578 14.5111 5.37218C14.5334 5.54349 14.5445 5.71608 14.5444 5.88884C14.5429 6.11216 14.5243 6.33503 14.4888 6.55551C15.0941 6.39992 15.6309 6.04861 16.0157 5.55627C16.4005 5.06392 16.6118 4.45817 16.6166 3.83329C16.6093 3.08179 16.3048 2.36374 15.7698 1.83598C15.2348 1.30822 14.5126 1.01365 13.7611 1.01662Z" fill="black" fill-opacity="0.8"/>
</svg>
