<svg width="11" height="16" viewBox="0 0 11 16" fill="none" xmlns="http://www.w3.org/2000/svg">
<path d="M10.0351 1.08806C10.0351 0.978495 9.99154 0.873417 9.91407 0.795943C9.83659 0.718469 9.73151 0.674945 9.62195 0.674945H7.55637C6.51625 0.623132 5.4979 0.985104 4.72383 1.68177C3.94975 2.37844 3.48288 3.35317 3.42522 4.39298V6.6238H1.35965C1.25008 6.6238 1.14501 6.66733 1.06753 6.7448C0.990058 6.82227 0.946533 6.92735 0.946533 7.03692V9.18511C0.946533 9.29468 0.990058 9.39976 1.06753 9.47723C1.14501 9.5547 1.25008 9.59823 1.35965 9.59823H3.42522V15.134C3.42522 15.2435 3.46875 15.3486 3.54622 15.4261C3.6237 15.5036 3.72877 15.5471 3.83834 15.5471H6.31703C6.42659 15.5471 6.53167 15.5036 6.60915 15.4261C6.68662 15.3486 6.73014 15.2435 6.73014 15.134V9.59823H8.89487C8.98673 9.59955 9.07642 9.5702 9.14974 9.51484C9.22307 9.45947 9.27584 9.38124 9.29972 9.29252L9.8946 7.14433C9.91104 7.08329 9.91325 7.01929 9.90106 6.95726C9.88888 6.89523 9.86261 6.83683 9.8243 6.78654C9.78599 6.73626 9.73665 6.69544 9.68009 6.66723C9.62352 6.63901 9.56123 6.62415 9.49801 6.6238H6.73014V4.39298C6.7507 4.18847 6.84674 3.99896 6.99951 3.86146C7.15229 3.72396 7.35083 3.64834 7.55637 3.64937H9.62195C9.73151 3.64937 9.83659 3.60585 9.91407 3.52837C9.99154 3.4509 10.0351 3.34582 10.0351 3.23626V1.08806Z" fill="white"/>
</svg>
