<svg width="20" height="20" viewBox="0 0 20 20" fill="none" xmlns="http://www.w3.org/2000/svg">
<path d="M13.5 9C13.8978 9 14.2794 8.84196 14.5607 8.56066C14.842 8.27936 15 7.89782 15 7.5C15 7.10218 14.842 6.72064 14.5607 6.43934C14.2794 6.15804 13.8978 6 13.5 6C13.1022 6 12.7206 6.15804 12.4393 6.43934C12.158 6.72064 12 7.10218 12 7.5C12 7.89782 12.158 8.27936 12.4393 8.56066C12.7206 8.84196 13.1022 9 13.5 9ZM11 11C11 10.7348 11.1054 10.4804 11.2929 10.2929C11.4804 10.1054 11.7348 10 12 10H15C15.2652 10 15.5196 10.1054 15.7071 10.2929C15.8946 10.4804 16 10.7348 16 11V12C16 12.5304 15.7893 13.0391 15.4142 13.4142C15.0391 13.7893 14.5304 14 14 14H13C12.4696 14 11.9609 13.7893 11.5858 13.4142C11.2107 13.0391 11 12.5304 11 12V11ZM5 6C4.73478 6 4.48043 6.10536 4.29289 6.29289C4.10536 6.48043 4 6.73478 4 7V10C4 10.2652 4.10536 10.5196 4.29289 10.7071C4.48043 10.8946 4.73478 11 5 11H9C9.26522 11 9.51957 10.8946 9.70711 10.7071C9.89464 10.5196 10 10.2652 10 10V7C10 6.73478 9.89464 6.48043 9.70711 6.29289C9.51957 6.10536 9.26522 6 9 6H5ZM4.75 4C4.02065 4 3.32118 4.28973 2.80546 4.80546C2.28973 5.32118 2 6.02065 2 6.75V13.25C2 13.9793 2.28973 14.6788 2.80546 15.1945C3.32118 15.7103 4.02065 16 4.75 16H15.25C15.9793 16 16.6788 15.7103 17.1945 15.1945C17.7103 14.6788 18 13.9793 18 13.25V6.75C18 6.02065 17.7103 5.32118 17.1945 4.80546C16.6788 4.28973 15.9793 4 15.25 4H4.75ZM3 6.75C3 5.784 3.784 5 4.75 5H15.25C16.216 5 17 5.784 17 6.75V13.25C17 13.7141 16.8156 14.1592 16.4874 14.4874C16.1592 14.8156 15.7141 15 15.25 15H4.75C4.28587 15 3.84075 14.8156 3.51256 14.4874C3.18437 14.1592 3 13.7141 3 13.25V6.75Z" fill="black" fill-opacity="0.8"/>
</svg>
