<svg width="25" height="16" viewBox="0 0 25 16" fill="none" xmlns="http://www.w3.org/2000/svg">
<path d="M15.3223 7.04301C15.395 7.4185 15.4469 7.79398 15.4469 8.28105C15.4469 12.5331 12.5304 15.5471 8.14028 15.5471C3.93694 15.5471 0.532715 12.2185 0.532715 8.10857C0.532715 3.9986 3.93694 0.670059 8.14028 0.670059C10.1953 0.670059 11.9077 1.4007 13.2362 2.61848L11.1708 4.55676C10.6104 4.02905 9.62443 3.41003 8.14028 3.41003C5.54563 3.41003 3.42835 5.51067 3.42835 8.10857C3.42835 10.7065 5.54563 12.8071 8.14028 12.8071C11.1501 12.8071 12.2814 10.6862 12.4578 9.6003H8.14028V7.04297H15.3223V7.04301ZM22.6686 7.29239V5.13317H20.4497V7.29239H18.2414V9.46199H20.4497V11.6212H22.6686V9.46199H24.8769V7.29239H22.6686Z" fill="white"/>
</svg>
