<svg width="25" height="25" viewBox="0 0 25 25" fill="none" xmlns="http://www.w3.org/2000/svg">
<path fill-rule="evenodd" clip-rule="evenodd" d="M14.5611 0.957061L23.7834 10.1869C25.3191 11.7239 24.1597 13.6653 21.9989 13.6653L21.9987 22.315C21.9987 23.509 21.0373 24.478 19.8547 24.478H4.66108C3.47674 24.478 2.51704 23.5092 2.51704 22.315V13.5209C0.392226 13.4872 -0.792956 11.7137 0.732551 10.1869L9.95479 0.957061C11.2288 -0.318049 13.2851 -0.319991 14.5611 0.957061ZM11.4661 2.49234L2.51343 11.4164L3.58969 11.4179C4.18624 11.4179 4.66234 11.9035 4.66232 12.5026L4.66108 22.3148C4.66108 22.3148 6.5768 22.3147 9.04768 22.3146C9.0418 22.269 9.03877 22.2225 9.03877 22.1752V16.7352C9.03877 14.9579 10.4795 13.5172 12.2567 13.5172C14.034 13.5172 15.4747 14.9579 15.4747 16.7352V22.1752C15.4747 22.2224 15.4717 22.2689 15.4658 22.3145C17.9371 22.3146 19.8534 22.315 19.8534 22.315L19.8545 12.5026C19.8546 11.9002 20.3346 11.4179 20.9267 11.4179H21.9951L13.0498 2.49234C12.611 2.0531 11.9043 2.05377 11.4661 2.49234Z" fill="#FE7474"/>
</svg>
