<svg width="24" height="26" viewBox="0 0 24 26" fill="none" xmlns="http://www.w3.org/2000/svg">
<path fill-rule="evenodd" clip-rule="evenodd" d="M20.3257 12.3153C20.7317 12.9605 20.9646 13.7082 21 14.4799L20.9734 14.675C21.004 15.7312 20.6701 16.7635 20.033 17.5829C19.2193 18.5098 18.1069 19.0889 16.91 19.2086C13.9617 19.5503 10.9863 19.5503 8.03799 19.2086C6.85854 19.0808 5.76557 18.5019 4.96827 17.5829C4.32062 16.7753 3.97675 15.7479 4.00122 14.6936V14.5636C4.05 13.7687 4.30121 13.002 4.72873 12.3432L4.7997 12.2503C5.24432 11.722 5.55006 11.0817 5.6869 10.3923V9.59331V8.47849C5.81271 8.14287 6.1376 7.93707 6.47989 7.97617C6.82218 8.01527 7.09705 8.28958 7.15079 8.64571V9.57473V10.5595C7.15424 10.5935 7.15424 10.6277 7.15079 10.6617C6.96606 11.6201 6.54382 12.5108 5.92645 13.2443C5.6887 13.6409 5.55412 14.0957 5.53608 14.5636V14.7679C5.51638 15.426 5.72433 16.0693 6.12163 16.5795C6.67247 17.1753 7.40907 17.5445 8.19768 17.62C11.052 17.9452 13.9315 17.9452 16.7858 17.62C17.596 17.5422 18.3506 17.1553 18.9062 16.5331C19.284 16.0349 19.4819 15.4131 19.4651 14.7772V14.5636C19.4469 14.0941 19.3157 13.6371 19.0836 13.2351C18.4406 12.5098 17.9935 11.6184 17.7883 10.6524C17.7849 10.6184 17.7849 10.5842 17.7883 10.5502V9.55615V8.62713C17.531 5.8215 14.8606 4.08424 12.5361 4.08424C11.5479 4.08186 10.5759 4.34751 9.7148 4.85532C9.47637 5.0054 9.17884 5.00771 8.93831 4.86134C8.69779 4.71497 8.55241 4.44312 8.55891 4.1519C8.56541 3.86068 8.72276 3.59624 8.96955 3.4618C10.0365 2.8306 11.2397 2.49486 12.4651 2.48633C15.5348 2.48633 18.9772 4.77171 19.3675 8.44133V9.53757V10.3551C19.5008 11.0458 19.807 11.6871 20.2548 12.2131C20.2813 12.2449 20.305 12.2791 20.3257 12.3153ZM12.7987 22.0444C13.3277 21.962 13.803 21.664 14.1193 21.2166H14.1283C14.4017 20.8736 14.8913 20.8256 15.2219 21.1092C15.5525 21.3928 15.5988 21.9007 15.3254 22.2436C14.6514 23.1579 13.6087 23.6988 12.4991 23.7096C11.3928 23.6959 10.3539 23.1554 9.68186 22.2436C9.40845 21.9007 9.4548 21.3928 9.78537 21.1092C10.1159 20.8256 10.6056 20.8736 10.879 21.2166C10.9991 21.3831 11.1415 21.5308 11.302 21.6554C11.731 21.9867 12.2698 22.1267 12.7987 22.0444Z" fill="#3C3A36"/>
</svg>
