<svg width="23" height="21" viewBox="0 0 23 21" fill="none" xmlns="http://www.w3.org/2000/svg">
<path d="M15.2107 6.79919H7.96338V5.10701H15.2107V6.79919ZM15.2107 8.49136H7.96338V10.1835H15.2107V8.49136ZM18.8343 3.41483V13.5679L13.3989 18.6444H6.15155C5.67102 18.6444 5.21018 18.4661 4.87039 18.1488C4.53061 17.8315 4.33972 17.401 4.33972 16.9522V3.41483C4.33972 2.96604 4.53061 2.53563 4.87039 2.21828C5.21018 1.90094 5.67102 1.72266 6.15155 1.72266H17.0225C17.503 1.72266 17.9639 1.90094 18.3037 2.21828C18.6435 2.53563 18.8343 2.96604 18.8343 3.41483ZM17.0225 11.8757V3.41483H6.15155V16.9522H11.587V13.5679C11.587 13.1191 11.7779 12.6887 12.1177 12.3713C12.4575 12.054 12.9183 11.8757 13.3989 11.8757H17.0225Z" fill="black"/>
</svg>
