<svg width="24" height="26" viewBox="0 0 24 26" fill="none" xmlns="http://www.w3.org/2000/svg">
<path d="M15.8977 16.0384C16.4649 15.7151 17.1141 15.531 17.8055 15.531H17.8079C17.8782 15.531 17.911 15.4415 17.8594 15.3917C17.1404 14.707 16.319 14.1539 15.429 13.7552C15.4196 13.7503 15.4102 13.7478 15.4008 13.7428C16.8563 12.6211 17.8032 10.7981 17.8032 8.74125C17.8032 5.33392 15.2063 2.57324 12.0024 2.57324C8.7985 2.57324 6.20397 5.33392 6.20397 8.74125C6.20397 10.7981 7.15084 12.6211 8.60865 13.7428C8.59928 13.7478 8.5899 13.7503 8.58053 13.7552C7.53287 14.2253 6.59303 14.8993 5.78443 15.7598C4.98051 16.6114 4.34048 17.6209 3.90006 18.7319C3.46673 19.8199 3.23287 20.9856 3.211 22.1666C3.21037 22.1931 3.21476 22.2196 3.2239 22.2443C3.23304 22.269 3.24675 22.2915 3.26423 22.3105C3.2817 22.3295 3.30258 22.3446 3.32564 22.3549C3.3487 22.3652 3.37347 22.3706 3.3985 22.3705H4.8024C4.90318 22.3705 4.98756 22.2835 4.9899 22.1766C5.03678 20.2565 5.761 18.4583 7.04303 17.0954C8.36725 15.6852 10.1297 14.9093 12.0047 14.9093C13.3337 14.9093 14.6087 15.2997 15.7079 16.0309C15.7361 16.0498 15.7685 16.0604 15.8019 16.0617C15.8352 16.063 15.8682 16.055 15.8977 16.0384ZM12.0047 13.0191C10.9313 13.0191 9.92115 12.5739 9.15943 11.7656C8.78466 11.3689 8.48755 10.8975 8.28521 10.3784C8.08288 9.85935 7.97933 9.30295 7.98053 8.74125C7.98053 7.59967 8.40006 6.52524 9.15943 5.71693C9.91881 4.90863 10.929 4.46344 12.0047 4.46344C13.0805 4.46344 14.0883 4.90863 14.8501 5.71693C15.2248 6.1136 15.5219 6.58504 15.7243 7.10409C15.9266 7.62314 16.0302 8.17954 16.029 8.74125C16.029 9.88283 15.6094 10.9573 14.8501 11.7656C14.0883 12.5739 13.0782 13.0191 12.0047 13.0191ZM20.6251 18.9384H18.6563V16.8492C18.6563 16.7398 18.5719 16.6502 18.4688 16.6502H17.1563C17.0532 16.6502 16.9688 16.7398 16.9688 16.8492V18.9384H15.0001C14.8969 18.9384 14.8126 19.0279 14.8126 19.1373V20.5301C14.8126 20.6395 14.8969 20.7291 15.0001 20.7291H16.9688V22.8182C16.9688 22.9277 17.0532 23.0172 17.1563 23.0172H18.4688C18.5719 23.0172 18.6563 22.9277 18.6563 22.8182V20.7291H20.6251C20.7282 20.7291 20.8126 20.6395 20.8126 20.5301V19.1373C20.8126 19.0279 20.7282 18.9384 20.6251 18.9384Z" fill="#3C3A36"/>
</svg>
