<svg width="24" height="26" viewBox="0 0 24 26" fill="none" xmlns="http://www.w3.org/2000/svg">
<path d="M12.0666 7.84302C9.46657 7.84302 7.3999 10.0361 7.3999 12.7951C7.3999 15.5541 9.46657 17.7472 12.0666 17.7472C14.6666 17.7472 16.7332 15.5541 16.7332 12.7951C16.7332 10.0361 14.6666 7.84302 12.0666 7.84302ZM12.0666 16.3323C10.1999 16.3323 8.73324 14.7759 8.73324 12.7951C8.73324 10.8143 10.1999 9.2579 12.0666 9.2579C13.9332 9.2579 15.3999 10.8143 15.3999 12.7951C15.3999 14.7759 13.9332 16.3323 12.0666 16.3323Z" fill="#3C3A36"/>
<path d="M21.8668 10.4606L20.0002 9.82388L19.6002 8.76272L20.5335 6.92337C20.7335 6.49891 20.6668 5.93296 20.3335 5.57924L18.7335 3.88138C18.4002 3.52765 17.8668 3.45691 17.4668 3.66914L15.7335 4.65956L14.7335 4.2351L14.1335 2.25426C14.0002 1.82979 13.6002 1.47607 13.1335 1.47607H10.8668C10.4002 1.47607 10.0002 1.8298 9.9335 2.325L9.3335 4.30584C8.9335 4.37658 8.60016 4.51807 8.26683 4.73031L6.5335 3.73989C6.1335 3.52765 5.60016 3.5984 5.26683 3.95212L3.66683 5.64998C3.3335 6.0037 3.26683 6.56965 3.46683 6.99412L4.3335 8.76272C4.20016 9.11644 4.06683 9.54091 3.9335 9.89463L2.06683 10.5313C1.66683 10.6728 1.3335 11.0973 1.3335 11.5925V13.9978C1.3335 14.493 1.66683 14.9175 2.1335 15.059L4.00016 15.6956L4.40016 16.7568L3.46683 18.5962C3.26683 19.0206 3.3335 19.5866 3.66683 19.9403L5.26683 21.6382C5.60016 21.9919 6.1335 22.0626 6.5335 21.8504L8.26683 20.86L9.26683 21.2844L9.86683 23.336C10.0002 23.7605 10.4002 24.1142 10.8668 24.1142H13.1335C13.6002 24.1142 14.0002 23.7605 14.1335 23.336L14.7335 21.2844L15.7335 20.86L17.4668 21.8504C17.8668 22.0626 18.4002 21.9919 18.7335 21.6382L20.3335 19.9403C20.6668 19.5866 20.7335 19.0206 20.5335 18.5962L19.6002 16.7568L20.0002 15.6956L21.9335 15.059C22.3335 14.9175 22.6668 14.493 22.6668 13.9978V11.5925C22.6668 11.0973 22.3335 10.6021 21.8668 10.4606ZM21.3335 13.7856L18.9335 14.5637L18.8668 14.9175L18.2668 16.4031L18.0668 16.7568L19.2668 19.0914L17.9335 20.5063L15.7335 19.2329L15.4002 19.4451C14.9335 19.7281 14.4668 19.9403 14.0002 20.0818L13.6668 20.1525L12.9335 22.6993H11.0668L10.3335 20.1525L10.0002 20.0818L8.60016 19.4451L8.26683 19.2329L6.06683 20.5063L4.7335 19.0914L5.9335 16.7568L5.7335 16.4031C5.46683 15.9079 5.26683 15.4127 5.1335 14.9175L5.06683 14.5637L2.66683 13.7856V11.8047L4.9335 11.0973L5.06683 10.7436C5.20016 10.1776 5.40016 9.6824 5.66683 9.18719L5.86683 8.83347L4.7335 6.49891L6.06683 5.08403L8.20016 6.35742L8.5335 6.14519C9.00016 5.86221 9.46683 5.64998 10.0002 5.50849L10.3335 5.367L11.0668 2.89096H12.9335L13.6668 5.367L14.0002 5.50849C14.4668 5.64998 14.9335 5.86221 15.4002 6.14519L15.7335 6.35742L17.9335 5.08403L19.2668 6.49891L18.0668 8.83347L18.2668 9.18719C18.5335 9.6824 18.7335 10.1776 18.8668 10.6728L18.9335 11.0265L21.3335 11.8047V13.7856Z" fill="#3C3A36"/>
</svg>
