<svg width="22" height="21" viewBox="0 0 22 21" fill="none" xmlns="http://www.w3.org/2000/svg">
<path d="M19.3444 7.68129L13.9129 6.90927L11.4849 2.09508C11.4186 1.96327 11.3095 1.85657 11.1747 1.79171C10.8367 1.62851 10.426 1.76451 10.257 2.09508L7.82896 6.90927L2.39746 7.68129C2.24771 7.70222 2.1108 7.77126 2.00598 7.87587C1.87925 8.00326 1.80942 8.17464 1.81183 8.35235C1.81423 8.53007 1.88868 8.69958 2.01881 8.82364L5.94858 12.5708L5.02015 17.862C4.99838 17.9851 5.01231 18.1117 5.06035 18.2274C5.1084 18.3432 5.18864 18.4434 5.29198 18.5168C5.39532 18.5902 5.51763 18.6338 5.64502 18.6427C5.77242 18.6516 5.89981 18.6254 6.01276 18.5671L10.871 16.069L15.7291 18.5671C15.8618 18.6361 16.0158 18.6591 16.1634 18.634C16.5356 18.5713 16.7859 18.2261 16.7217 17.862L15.7933 12.5708L19.7231 8.82364C19.8301 8.72112 19.9006 8.58722 19.922 8.44077C19.9798 8.07463 19.7188 7.73569 19.3444 7.68129V7.68129ZM14.1397 12.0436L14.912 16.4435L10.871 14.368L6.82994 16.4456L7.60221 12.0457L4.33346 8.92825L8.85152 8.28594L10.871 4.28354L12.8904 8.28594L17.4084 8.92825L14.1397 12.0436Z" fill="black"/>
</svg>
