<svg width="24" height="24" viewBox="0 0 24 24" fill="none" xmlns="http://www.w3.org/2000/svg">
<path d="M5.625 3C5.32663 3 5.04048 3.11853 4.8295 3.3295C4.61853 3.54048 4.5 3.82663 4.5 4.125C4.5 4.42337 4.61853 4.70952 4.8295 4.9205C5.04048 5.13147 5.32663 5.25 5.625 5.25H18.375C18.6734 5.25 18.9595 5.13147 19.1705 4.9205C19.3815 4.70952 19.5 4.42337 19.5 4.125C19.5 3.82663 19.3815 3.54048 19.1705 3.3295C18.9595 3.11853 18.6734 3 18.375 3H5.625ZM12.795 7.08C12.5841 6.86932 12.2981 6.75099 12 6.75099C11.7019 6.75099 11.4159 6.86932 11.205 7.08L6.33 11.955C6.13128 12.1683 6.0231 12.4503 6.02824 12.7418C6.03338 13.0332 6.15145 13.3113 6.35757 13.5174C6.56369 13.7236 6.84176 13.8416 7.13322 13.8468C7.42467 13.8519 7.70674 13.7437 7.92 13.545L10.875 10.59V19.875C10.875 20.1734 10.9935 20.4595 11.2045 20.6705C11.4155 20.8815 11.7016 21 12 21C12.2984 21 12.5845 20.8815 12.7955 20.6705C13.0065 20.4595 13.125 20.1734 13.125 19.875V10.59L16.08 13.545C16.183 13.6555 16.3072 13.7442 16.4452 13.8057C16.5832 13.8672 16.7322 13.9002 16.8832 13.9029C17.0343 13.9056 17.1843 13.8778 17.3244 13.8212C17.4645 13.7646 17.5917 13.6804 17.6986 13.5736C17.8054 13.4667 17.8896 13.3395 17.9462 13.1994C18.0028 13.0593 18.0306 12.9093 18.0279 12.7582C18.0252 12.6072 17.9922 12.4582 17.9307 12.3202C17.8692 12.1822 17.7805 12.058 17.67 11.955L12.795 7.08Z" fill="black"/>
</svg>
