<svg width="17" height="17" viewBox="0 0 17 17" fill="none" xmlns="http://www.w3.org/2000/svg">
<path d="M1.78947 17H0V16.1053C0.00394457 12.6479 2.80575 9.84605 6.26316 9.8421H9.8421C13.2995 9.84605 16.1013 12.6479 16.1053 16.1053V17H14.3158V16.1053C14.3128 13.6357 12.3116 11.6345 9.8421 11.6316H6.26316C3.79364 11.6345 1.79243 13.6357 1.78947 16.1053V17ZM8.05263 8.94737C5.58188 8.94737 3.57895 6.94443 3.57895 4.47368C3.57895 2.00294 5.58188 0 8.05263 0C10.5234 0 12.5263 2.00294 12.5263 4.47368C12.5234 6.94321 10.5222 8.94441 8.05263 8.94737ZM8.05263 1.78947C6.57018 1.78947 5.36842 2.99124 5.36842 4.47368C5.36842 5.95613 6.57018 7.15789 8.05263 7.15789C9.53508 7.15789 10.7368 5.95613 10.7368 4.47368C10.7368 2.99124 9.53508 1.78947 8.05263 1.78947Z" fill="#B97E7E"/>
</svg>
