<svg width="22" height="22" viewBox="0 0 22 22" fill="none" xmlns="http://www.w3.org/2000/svg">
<path fill-rule="evenodd" clip-rule="evenodd" d="M20.983 7.85323C20.8021 7.3121 20.3354 6.9164 19.772 6.82649L14.2873 5.98579L11.9091 0.879298C11.6601 0.343051 11.1226 0 10.5313 0C9.94009 0 9.40257 0.343051 9.15356 0.879298L6.77539 5.98404L1.29067 6.82473C0.726558 6.91508 0.259477 7.31161 0.0787595 7.85358C-0.101958 8.39554 0.0336705 8.99304 0.430667 9.40387L4.44987 13.5424L3.51966 19.2843C3.42101 19.861 3.66199 20.4432 4.1394 20.7815C4.61681 21.1198 5.24597 21.1542 5.75743 20.87L10.5313 18.2145L15.3052 20.87C15.5314 20.9935 15.7847 21.0592 16.0424 21.0613C16.4904 21.0605 16.9154 20.8627 17.2044 20.5205C17.4934 20.1782 17.6173 19.7261 17.543 19.2843L16.6128 13.5424L20.632 9.40387C21.0292 8.99298 21.1645 8.39511 20.983 7.85323ZM15.3941 12.431C15.0612 12.7683 14.911 13.2451 14.9904 13.7122L15.8943 19.3137L11.252 16.7249C10.8046 16.4757 10.2602 16.4757 9.8128 16.7249L5.17054 19.3137L6.07442 13.7122C6.15385 13.2451 6.00361 12.7683 5.67074 12.431L1.76562 8.39427L7.10116 7.57287C7.58895 7.49447 8.00628 7.17966 8.21565 6.73218L10.5324 1.75293L12.8491 6.73305C13.0587 7.1802 13.476 7.49465 13.9636 7.57287L19.2992 8.39514L15.3941 12.431Z" fill="#F2C94C"/>
</svg>
