<svg width="13" height="14" viewBox="0 0 13 14" fill="none" xmlns="http://www.w3.org/2000/svg">
<path fill-rule="evenodd" clip-rule="evenodd" d="M12.7011 5.25922C12.5942 4.93065 12.3186 4.69038 11.9858 4.63579L8.74659 4.12531L7.34205 1.02463C7.19499 0.699024 6.87753 0.490723 6.52835 0.490723C6.17917 0.490723 5.86171 0.699024 5.71465 1.02463L4.31011 4.12425L1.07086 4.63472C0.737696 4.68958 0.46184 4.93035 0.355109 5.25943C0.248378 5.58852 0.328479 5.95132 0.562944 6.20078L2.93667 8.71372L2.38729 12.2002C2.32903 12.5504 2.47135 12.9039 2.75331 13.1093C3.03526 13.3147 3.40684 13.3356 3.70891 13.163L6.52835 11.5506L9.3478 13.163C9.4814 13.238 9.63094 13.2779 9.78315 13.2792C10.0477 13.2787 10.2987 13.1586 10.4694 12.9508C10.6401 12.743 10.7133 12.4684 10.6694 12.2002L10.12 8.71372L12.4938 6.20078C12.7283 5.95128 12.8083 5.58826 12.7011 5.25922Z" fill="#F5D87E"/>
</svg>
